PathFileType	4	(X/Y/Z)	 s03c0302.trc
DataRate	CameraRate	NumFrames	NumMarkers	Units	OrigDataRate	OrigDataStartFrame	OrigNumFrames
200	200	5	52	mm	200	1751	2000
Frame#	Time	racr			lacr			c7			jug			rlel			rdr			llel			ldr			s2			lic			ric			lasi			rasi			rpsi			lpsi			rgt			lgt			rth1			rth2			rth3			rth4			rlfc			rmfc			rsh1			rsh2			rsh3			rsh4			rlmal			rmmal			rcal			rtoe			rmt5			rmt1			lth1			lth2			lth4			lth3			llfc			lmfc			lsh1			lsh2			lsh3			lsh4			llmal			lmmal			lcal			ltoe			lmt1			lmt5			SBIKE			LBIKE			RBIKE			
		X1	Y1	Z1	X2	Y2	Z2	X3	Y3	Z3	X4	Y4	Z4	X5	Y5	Z5	X6	Y6	Z6	X7	Y7	Z7	X8	Y8	Z8	X9	Y9	Z9	X10	Y10	Z10	X11	Y11	Z11	X12	Y12	Z12	X13	Y13	Z13	X14	Y14	Z14	X15	Y15	Z15	X16	Y16	Z16	X17	Y17	Z17	X18	Y18	Z18	X19	Y19	Z19	X20	Y20	Z20	X21	Y21	Z21	X22	Y22	Z22	X23	Y23	Z23	X24	Y24	Z24	X25	Y25	Z25	X26	Y26	Z26	X27	Y27	Z27	X28	Y28	Z28	X29	Y29	Z29	X30	Y30	Z30	X31	Y31	Z31	X32	Y32	Z32	X33	Y33	Z33	X34	Y34	Z34	X35	Y35	Z35	X36	Y36	Z36	X37	Y37	Z37	X38	Y38	Z38	X39	Y39	Z39	X40	Y40	Z40	X41	Y41	Z41	X42	Y42	Z42	X43	Y43	Z43	X44	Y44	Z44	X45	Y45	Z45	X46	Y46	Z46	X47	Y47	Z47	X48	Y48	Z48	X49	Y49	Z49	X50	Y50	Z50	X51	Y51	Z51	X52	Y52	Z52	
1751	8.7550	671.976629	1422.621979	-61.536599	636.292128	1460.191332	-386.630556	603.339758	1529.994578	-218.625798	617.629921	1355.353612	-229.938182	588.405191	1166.551310	62.768107	740.730097	946.221155	-31.598935	630.494971	1190.017214	-462.660211	760.109347	920.960201	-402.051081	71.418927	1268.485352	-197.703103	239.710411	1290.131128	-382.820479	255.443470	1263.275038	-21.409228	257.403407	1214.408261	-347.399989	269.308966	1184.494104	-71.884456	107.468956	1310.460085	-147.904764	101.028490	1320.325261	-221.066337	171.731351	1153.502920	-17.818032	178.180082	1218.250303	-406.571458	200.498841	999.747594	-0.946076	244.180239	922.371545	-3.636631	247.258202	837.413342	-17.408018	279.128096	933.114150	-10.506630	266.226540	715.489351	-53.199906	284.080901	700.506593	-164.819146	214.924287	554.070187	-27.801714	218.818180	465.202131	-39.308660	176.842260	387.617405	-44.357188	250.024802	460.804929	-62.232220	138.321105	260.568734	-69.239495	168.059367	271.956346	-148.239989	72.763791	233.598451	-104.294018	372.005836	147.735121	-111.524073	253.327331	161.435578	-38.848617	281.978965	175.624778	-152.105019	262.820925	1135.484886	-474.113256	338.780127	1106.496650	-505.087947	363.891012	1130.197635	-491.340109	388.727184	1037.816801	-534.419935	496.451060	950.477809	-558.485564	533.731504	929.121151	-432.829863	374.839550	826.044881	-539.030582	337.813501	757.924583	-501.552020	262.926334	716.195111	-472.902756	365.708140	739.986077	-481.108570	179.317432	633.088910	-424.589875	NaN	NaN	NaN	106.092528	628.517237	-369.359173	373.805712	479.919913	-351.223388	287.767611	520.455343	-313.138327	260.095933	507.150532	-429.897693	-214.186573	946.165808	-230.275841	-5.806086	84.219050	-435.120564	-11.418628	81.305482	-34.698322	
1752	8.7600	671.567099	1422.549976	-61.197648	635.623561	1460.125948	-386.315706	602.828071	1529.956029	-218.151196	617.131926	1355.348097	-229.609893	588.449640	1166.303400	62.888405	740.750165	946.070935	-31.525528	629.930715	1189.958273	-462.209383	760.094510	921.010702	-402.028443	70.607243	1268.825748	-196.749423	238.678147	1290.614804	-382.199136	255.128387	1263.007875	-20.909185	256.330973	1214.729164	-347.012522	268.884698	1184.471914	-71.757301	106.959662	1310.676813	-146.986626	100.259719	1320.631834	-219.933421	171.322675	1153.468925	-17.331888	177.032424	1218.766753	-405.957575	199.964386	999.804147	-0.569536	243.637866	922.425110	-3.364841	246.726814	837.480352	-17.134674	278.676642	933.082291	-10.441952	265.327102	715.544197	-52.961341	283.038682	700.607320	-164.763911	213.901333	554.138018	-27.658240	217.803833	465.294927	-39.212020	175.846636	387.674934	-44.287482	249.031169	460.890413	-62.149074	137.254398	260.476115	-69.325314	167.033369	272.098781	-148.202287	71.742060	233.685053	-104.280013	370.869976	147.694557	-111.489805	252.233139	161.412650	-38.839522	280.950767	175.658391	-152.071362	261.658173	1136.078538	-473.769830	337.581413	1107.218116	-504.894679	362.687998	1130.976519	-491.207374	387.618415	1038.659148	-534.324238	495.495069	951.605503	-558.615465	532.959301	930.215738	-433.049840	374.371993	826.588122	-539.163648	337.665737	758.336202	-501.631894	262.977187	716.285474	-472.951684	365.662055	740.463470	-481.278292	179.712788	632.821748	-424.564710	NaN	NaN	NaN	106.555716	627.981690	-369.351065	374.791761	480.453459	-351.179703	288.626959	520.603698	-313.083072	260.987278	507.200372	-429.894861	-214.195551	946.169393	-230.268508	-5.815911	84.215514	-435.116308	-11.425949	81.301141	-34.682540	
1753	8.7650	671.194816	1422.488673	-60.848018	634.885860	1460.088565	-385.997234	602.315546	1529.921994	-217.685594	616.581554	1355.349512	-229.263836	588.493954	1166.053682	63.018436	740.782113	945.945442	-31.476962	629.477823	1189.880233	-461.772577	760.098805	921.076042	-402.001708	69.870641	1269.166691	-195.815475	237.670231	1291.075541	-381.445627	254.817493	1262.749706	-20.400647	255.279682	1215.126023	-346.629425	268.501751	1184.480883	-71.741521	106.437660	1310.867204	-146.034016	105.654929	1318.160634	-230.034463	170.921454	1153.408420	-16.854892	175.892960	1219.278360	-405.401528	199.402420	999.860958	-0.196945	243.102038	922.466905	-3.150922	246.181087	837.552852	-16.889902	278.155673	933.162460	-10.337597	264.472570	715.626249	-52.740805	282.057552	700.665657	-164.655420	212.939228	554.219581	-27.529450	216.840715	465.338292	-39.118954	174.807194	387.725215	-44.218021	247.975474	460.990747	-61.983786	136.282066	260.550729	-69.307057	165.947269	272.230672	-148.199083	70.685777	233.780242	-104.316879	369.796500	147.614074	-111.519153	251.128788	161.439150	-38.834547	279.878902	175.647437	-152.128266	260.407035	1136.620609	-473.519360	336.325203	1107.907482	-504.767937	361.659975	1131.936709	-491.589194	386.481235	1039.379306	-534.190502	494.564158	952.585894	-558.797537	532.086638	931.317861	-433.293804	373.847875	827.186438	-539.272698	337.486413	758.638663	-501.647130	262.980440	716.356125	-472.972195	365.584203	740.912605	-481.434676	180.097034	632.492417	-424.522264	NaN	NaN	NaN	106.984404	627.477678	-369.338564	375.738440	480.996398	-351.129452	289.506533	520.772486	-313.046238	261.895903	507.257910	-429.876518	-214.185587	946.175824	-230.248070	-5.815433	84.200964	-435.090499	-11.434869	81.303411	-34.680731	
1754	8.7700	670.762831	1422.382680	-60.538777	634.214049	1460.050393	-385.708665	601.779453	1529.860551	-217.143058	616.079006	1355.357446	-228.893149	588.893341	1165.877580	63.441700	740.790715	945.790295	-31.449161	628.915006	1189.817200	-461.254682	760.096766	921.121990	-401.962860	69.160922	1269.539476	-194.851586	236.669647	1291.549193	-380.802776	254.537085	1262.508481	-19.915400	254.171804	1215.493964	-346.430633	268.115978	1184.376309	-71.611552	104.575886	1311.840582	-143.909420	104.016236	1319.128295	-223.674990	170.513321	1153.354504	-16.338311	174.714821	1219.772843	-404.903526	198.830563	999.945936	0.181780	242.547343	922.510426	-2.942423	245.583183	837.639106	-16.686026	277.556669	933.303307	-10.171530	263.573427	715.671065	-52.542647	281.100959	700.708773	-164.396724	211.885984	554.304016	-27.450539	215.793005	465.368249	-39.004697	173.817388	387.776604	-44.159350	247.012606	460.944837	-61.865683	135.168154	260.671656	-69.295289	164.913152	272.243897	-148.194989	69.703118	233.813142	-104.305371	368.760601	147.614081	-111.532243	250.075432	161.458107	-38.847668	278.804495	175.638587	-152.108576	259.154156	1137.046675	-473.175690	335.074967	1108.477981	-504.607065	360.356670	1132.587818	-491.452021	385.323305	1040.100873	-534.044177	493.613959	953.628778	-559.000382	531.191439	932.353487	-433.483201	373.343792	827.657489	-539.315616	337.224867	759.016229	-501.736494	262.961996	716.410068	-472.979454	365.444089	741.418042	-481.568254	180.426626	632.202953	-424.492441	NaN	NaN	NaN	107.388609	626.875192	-369.288842	376.798517	481.525241	-351.148979	290.226255	521.038069	-313.263145	262.777289	507.315523	-429.892694	-214.174926	946.173809	-230.241618	-5.819445	84.196822	-435.076097	-11.432430	81.306998	-34.679465	
1755	8.7750	670.395680	1422.256378	-60.192952	633.475326	1459.967630	-385.406695	601.254424	1529.807627	-216.628245	615.578824	1355.336130	-228.534676	588.967973	1165.506355	63.608716	740.824885	945.611622	-31.384527	628.435576	1189.682370	-460.735346	760.083165	921.150678	-401.901587	68.621136	1269.904269	-193.922494	235.738215	1292.016711	-380.222806	254.692530	1262.281227	-19.309689	253.118810	1215.788518	-346.124804	267.686106	1184.276338	-71.436708	103.922842	1312.105872	-142.894976	103.442362	1319.339045	-223.391183	170.098331	1153.303493	-15.850690	173.560066	1220.263326	-404.381776	198.284881	999.974374	0.534963	241.940548	922.566746	-2.743428	244.960740	837.693401	-16.476109	276.918687	933.413617	-10.082668	262.668605	715.669996	-52.402602	280.119834	700.709614	-164.180441	210.897624	554.366387	-27.326543	214.714684	465.474203	-38.902903	172.743461	387.883061	-44.120859	245.929226	461.023010	-61.803619	134.192286	260.715031	-69.384370	163.985366	272.355600	-148.212726	68.687313	233.837484	-104.350419	367.698223	147.602889	-111.506391	249.056921	161.396904	-38.879118	277.792996	175.601980	-152.104182	257.848919	1137.538966	-472.879241	333.763032	1109.039360	-504.429795	359.021542	1133.183399	-491.301099	384.113095	1040.701297	-533.872271	492.593930	954.586439	-559.282979	530.297713	933.430636	-433.560367	372.795200	828.148357	-539.320773	336.967994	759.347129	-501.818737	262.901008	716.438627	-472.964949	365.291958	741.867549	-481.642894	180.735322	631.930580	-424.428734	NaN	NaN	NaN	107.746664	626.231236	-369.215549	377.721158	481.968305	-351.255898	291.064604	521.194948	-313.234157	263.593556	507.348567	-429.837522	-214.188444	946.164639	-230.251526	-5.817196	84.216972	-435.117134	-11.424381	81.295769	-34.693303	
